<?xml version="1.0" standalone="no"?>
<!DOCTYPE svg PUBLIC "-//W3C//DTD SVG 20010904//EN"
 "http://www.w3.org/TR/2001/REC-SVG-20010904/DTD/svg10.dtd">
<svg version="1.0" xmlns="http://www.w3.org/2000/svg"
 width="474.000000pt" height="347.000000pt" viewBox="0 0 474.000000 347.000000"
 preserveAspectRatio="xMidYMid meet">

<g transform="translate(0.000000,347.000000) scale(0.100000,-0.100000)"
fill="#000000" stroke="none">
<path d="M2170 3239 c-564 -64 -1063 -398 -1302 -873 -49 -97 -99 -240 -124
-356 -27 -120 -27 -428 -1 -550 62 -287 197 -531 416 -751 296 -296 697 -467
1136 -486 822 -35 1540 488 1702 1238 26 120 26 429 -1 548 -28 129 -61 225
-120 346 -74 151 -160 269 -296 406 -355 356 -888 537 -1410 478z m490 -314
c417 -93 748 -339 919 -683 91 -180 126 -347 118 -552 -23 -584 -476 -1056
-1112 -1157 -132 -21 -392 -13 -520 15 -608 136 -1025 619 -1025 1187 0 395
204 760 555 990 44 29 109 67 145 85 85 43 276 105 370 120 41 6 82 13 90 15
44 11 392 -5 460 -20z"/>
<path d="M2095 2726 l-25 -25 0 -339 0 -339 -376 -6 c-222 -4 -383 -11 -394
-17 -33 -18 -41 -80 -38 -285 3 -219 4 -221 80 -236 23 -4 197 -8 385 -9 l342
0 3 -345 c3 -343 3 -345 26 -367 22 -23 26 -23 267 -23 239 0 245 0 267 22 31
32 36 90 37 426 l1 287 343 0 c188 0 360 5 381 10 70 16 71 17 74 247 3 224
-1 248 -47 276 -26 15 -69 17 -389 17 l-360 0 -4 335 c-3 320 -4 335 -24 362
l-21 28 -252 3 -252 2 -24 -24z"/>
</g>
</svg>
